<svg width="17" height="16" viewBox="0 0 17 16" version="1.1" xmlns="http://www.w3.org/2000/svg" xmlns:xlink="http://www.w3.org/1999/xlink">
<title>Vector</title>
<desc>Created using Figma</desc>
<g id="Canvas" transform="translate(-1206 -1196)">
<g id="Vector">
<use xlink:href="#path0_fill" transform="translate(1206 1196)" fill="#FFFFFF" fill-opacity="0.9"/>
</g>
</g>
<defs>
<path id="path0_fill" d="M 6.51544 16C 6.37979 16 6.2441 15.9507 6.13984 15.8517C 5.92908 15.6517 5.92636 15.3249 6.13383 15.1216L 15.0578 6.37986C 16.2179 5.24338 16.2228 3.39895 15.0685 2.26827L 14.6665 1.87443C 14.1122 1.33146 13.3749 1.03249 12.5902 1.03249C 11.7995 1.03249 11.0549 1.33539 10.4935 1.88533L 1.62363 10.48C 0.886152 11.2024 0.883013 12.3779 1.61845 13.0984L 1.89638 13.3706C 2.2669 13.7336 2.78729 13.9418 3.3241 13.9418C 3.82535 13.9418 4.28537 13.7615 4.61953 13.4342L 12.582 5.63429C 12.8819 5.34046 12.8837 4.86401 12.5858 4.5722L 12.4373 4.42675C 12.2966 4.28891 12.1097 4.21301 11.911 4.21301C 11.7102 4.21301 11.5207 4.29037 11.3773 4.43078L 4.01775 11.6404C 3.81028 11.8435 3.47131 11.8462 3.26049 11.6462C 3.04973 11.4462 3.04701 11.1193 3.25448 10.9161L 10.6142 3.70655C 10.9605 3.36733 11.4211 3.18052 11.911 3.18052C 12.399 3.18052 12.8569 3.36592 13.2006 3.70257L 13.349 3.84807C 14.0545 4.53906 14.0528 5.66531 13.3452 6.35847L 5.38285 14.1585C 4.84578 14.6845 4.11473 14.9743 3.32421 14.9743C 2.50235 14.9743 1.70382 14.6538 1.13322 14.0948L 0.855288 13.8226C -0.287915 12.7027 -0.284672 10.8775 0.862507 9.75374L 9.73235 1.15908C 10.4946 0.412298 11.5103 5.19455e-09 12.5903 5.19455e-09C 13.6641 5.19455e-09 14.6726 0.408516 15.4298 1.15025L 15.8318 1.54409C 17.3936 3.07411 17.3888 5.56832 15.821 7.10414L 6.89704 15.8459C 6.79227 15.9485 6.65385 16 6.51544 16Z"/>
</defs>
</svg>
